 http://img210.imageshack.us/img210/2122/honey22011.jpg

Country.......: USA
Genre.........: Music, Drama, Comedy
Date release..: 10.06.2011 [World]
Director......: Bille Woodruff
Writers.......: Blayne Weaver, Alyson Fouse
Duration......: 106 min.
More..........: http://www.imdb.com/title/tt1657283
Trailer.......: http://www.imdb.com/video/imdblink/vi3864304921
Trailer.......:

Pilot :
Recently released from juvenile detention, talented dancer Maria Ramirez finds an outlet for her passion with a new dance crew. 

Cats :
George Alexander   	 ...  	718 Crew #1 (as George Gee Alexander)
Gerry Bednob 	... 	Mr. Kapoor
Aaron Benjamin 	... 	Production Assistant
Ariana Berlin 	... 	718 Crew #3
Luke Broadlick 	... 	HD Crew #1
Kimberly Brooks 	... 	Marias Case Manager
Kelly Connolly 	... 	Girl In Club
Justin Deanda 	... 	HD Crew #2
Seychelle Gabriel 	... 	Tina
Laurieann Gibson 	... 	Celebrity Judge Rebecca (as Laurie Ann Gibson)
Brandon Gonzales 	... 	Officer Blaine
Kat Graham 	... 	Maria Ramirez (as Katerina Graham)
Alexis Jordan 	... 	Herself
Mario Lopez 	... 	Celebrity Host
Kallie Loudon 	... 	Julissa | Juvie Crew 

Data Technical :
!!! SAMPLE !!!
Audio.....: English
Subtitles.: None
Format                           : AVI
Format/Info                      : Audio Video Interleave
File size                        : 1.48 GiB
Duration                         : 1h 46mn
Overall bit rate                 : 2 000 Kbps
Writing library                  : MPlayer
Video
ID                               : 0
Format                           : MPEG-4 Visual
Format profile                   : Advanced Simple@L5
Format settings, BVOP            : Yes
Format settings, QPel            : No
Format settings, GMC             : No warppoints
Format settings, Matrix          : Default (H.263)
Codec ID                         : XVID
Codec ID/Hint                    : XviD
Duration                         : 1h 46mn
Bit rate                         : 1 732 Kbps
Width                            : 720 pixels
Height                           : 480 pixels
Display aspect ratio             : 3:2
Frame rate                       : 25.000 fps
Standard                         : NTSC
Color space                      : YUV
Chroma subsampling               : 4:2:0
Bit depth                        : 8 bits
Scan type                        : Progressive
Bits/(Pixel*Frame)               : 0.200
Stream size                      : 1.28 GiB (87%)
Writing library                  : XviD 1.1.2 (UTC 2006-11-01)
Audio
ID                               : 1
Format                           : MPEG Audio
Format version                   : Version 1
Format profile                   : Layer 3
Mode                             : Joint stereo
Codec ID                         : 55
Codec ID/Hint                    : MP3
Duration                         : 1h 46mn
Bit rate mode                    : Constant
Bit rate                         : 256 Kbps
Channel(s)                       : 2 channels
Sampling rate                    : 44.1 KHz
Video delay                      : 40ms
Stream size                      : 194 MiB (13%)
Alignment                        : Aligned on interleaves
Interleave, duration             : 26 ms (0.65 video frame)
Interleave, preload duration     : 809 ms
Writing library                  : LAME3.97

Screen : 
http://img695.imageshack.us/img695/3141/honey22011s1.jpg 
http://img843.imageshack.us/img843/4121/honey22011s2.jpg 
http://img825.imageshack.us/img825/6214/honey22011s3.jpg 
http://img41.imageshack.us/img41/3656/honey22011s4.jpg 
http://img406.imageshack.us/img406/9480/honey22011s5.jpg